<?xml version="1.0" encoding="UTF-8" standalone="no" ?>
<!DOCTYPE svg PUBLIC "-//W3C//DTD SVG 1.1//EN" "http://www.w3.org/Graphics/SVG/1.1/DTD/svg11.dtd">
<svg xmlns="http://www.w3.org/2000/svg" xmlns:xlink="http://www.w3.org/1999/xlink" version="1.1" width="237.51953125" height="219.432" xml:space="preserve">
<desc>Created with Fabric.js 1.6.0-rc.1</desc>
<defs></defs>
<g style="stroke: none; stroke-width: 1; stroke-dasharray: none; stroke-linecap: butt; stroke-linejoin: miter; stroke-miterlimit: 10; fill: none; fill-rule: nonzero; opacity: 1;" transform="translate(53.200000000000045 10) scale(0.13 0.13)" >
  <path d="M 448.103 159.584 c 226.449 0 410.017 183.571 410.017 410.021 c 0 226.449 -183.567 410.023 -410.017 410.023 S 38.079 796.054 38.079 569.604 c 0 -226.449 183.575 -410.02 410.024 -410.02 z" style="stroke: none; stroke-width: 1; stroke-dasharray: none; stroke-linecap: butt; stroke-linejoin: miter; stroke-miterlimit: 10; fill: #ffda7d; fill-rule: nonzero; opacity: 1;" transform=" matrix(0.9999996709953805 0 0 0.9999996709953805 0 0) " stroke-linecap="round" />
  <path d="M 897.074 296.901 c 6.878 -0.691 14.032 14.479 15.979 33.877 c 1.947 19.395 -2.046 35.683 -8.925 36.37 c -6.871 0.691 -14.024 -14.475 -15.971 -33.874 c -1.947 -19.398 2.046 -35.682 8.917 -36.373 z" style="stroke: none; stroke-width: 1; stroke-dasharray: none; stroke-linecap: butt; stroke-linejoin: miter; stroke-miterlimit: 10; fill: #b76204; fill-rule: nonzero; opacity: 1;" transform=" matrix(0.9999996709953805 0 0 0.9999996709953805 -498.0818361287211 -176.9239417911867) " stroke-linecap="round" />
  <ellipse cx="943.3149999999999" cy="328.463" rx="12.505" ry="35.303" style="stroke: none; stroke-width: 1; stroke-dasharray: none; stroke-linecap: butt; stroke-linejoin: miter; stroke-miterlimit: 10; fill: #b76204; fill-rule: nonzero; opacity: 1;" transform=" matrix(0.9999996709953805 0 0 0.9999996709953805 -498.0818361287211 -176.9239417911867) "/>
  <path d="M 989.327 294.065 c 6.871 0.71 10.825 17.005 8.825 36.4 s -9.191 34.542 -16.063 33.835 c -6.879 -0.71 -10.825 -17.006 -8.833 -36.401 c 2 -19.394 9.192 -34.541 16.071 -33.834 z" style="stroke: none; stroke-width: 1; stroke-dasharray: none; stroke-linecap: butt; stroke-linejoin: miter; stroke-miterlimit: 10; fill: #b76204; fill-rule: nonzero; opacity: 1;" transform=" matrix(0.9999996709953805 0 0 0.9999996709953805 -498.0818361287211 -176.9239417911867) " stroke-linecap="round" />
  <ellipse cx="1027.794" cy="335.015" rx="35.304" ry="12.505" style="stroke: none; stroke-width: 1; stroke-dasharray: none; stroke-linecap: butt; stroke-linejoin: miter; stroke-miterlimit: 10; fill: #b76204; fill-rule: nonzero; opacity: 1;" transform=" matrix(0.20280431926420145 -0.9792189489989729 0.9792189489989729 0.20280431926420145 -498.0818361287211 -176.9239417911867) "/>
  <ellipse cx="1069.511" cy="345.025" rx="35.301" ry="12.505" style="stroke: none; stroke-width: 1; stroke-dasharray: none; stroke-linecap: butt; stroke-linejoin: miter; stroke-miterlimit: 10; fill: #b76204; fill-rule: nonzero; opacity: 1;" transform=" matrix(0.30080557189436713 -0.9536851419143384 0.9536851419143384 0.30080557189436713 -498.0818361287211 -176.9239417911867) "/>
  <path d="M 1124.248 326.663 c 6.345 2.733 5.229 19.468 -2.496 37.37 c -7.718 17.906 -19.124 30.202 -25.46 27.468 c -6.345 -2.737 -5.229 -19.467 2.488 -37.374 c 7.725 -17.905 19.124 -30.201 25.468 -27.464 z m 42.141 19.037 c 6.031 3.363 3.229 19.891 -6.26 36.923 c -9.489 17.032 -22.071 28.113 -28.102 24.754 c -6.031 -3.363 -3.229 -19.891 6.252 -36.923 c 9.49 -17.032 22.072 -28.114 28.11 -24.754 z m 39.836 23.113 c 5.673 3.958 1.214 20.124 -9.947 36.11 c -11.161 15.982 -24.804 25.735 -30.469 21.777 c -5.664 -3.958 -1.214 -20.124 9.947 -36.106 c 11.162 -15.987 24.805 -25.736 30.469 -21.781 z m 36.691 27.205 c 5.229 4.508 -0.847 20.135 -13.573 34.9 c -12.727 14.765 -27.285 23.075 -32.515 18.567 c -5.237 -4.512 0.84 -20.136 13.573 -34.9 c 12.726 -14.766 27.285 -23.08 32.515 -18.567 z m 17.452 64.857 c -14.154 13.406 -29.491 20.201 -34.225 15.185 c -4.764 -5.016 2.855 -19.949 17.017 -33.354 c 14.154 -13.398 29.484 -20.201 34.24 -15.185 c 4.749 5.015 -2.87 19.948 -17.032 33.354 z m 48.218 0.87 c 4.214 5.474 -4.879 19.559 -20.322 31.461 c -15.444 11.906 -31.385 17.116 -35.6 11.646 c -4.222 -5.474 4.879 -19.559 20.323 -31.465 c 15.444 -11.902 31.378 -17.116 35.599 -11.642 z m 26.904 37.034 c 3.649 5.871 -6.833 18.963 -23.399 29.239 c -16.559 10.279 -32.942 13.853 -36.584 7.981 c -3.648 -5.875 6.825 -18.963 23.392 -29.243 c 16.565 -10.278 32.949 -13.848 36.591 -7.977 z m 23.971 40.179 c 3.023 6.207 -8.719 18.166 -26.239 26.708 c -17.521 8.543 -34.179 10.436 -37.202 4.226 c -3.031 -6.207 8.719 -18.166 26.239 -26.708 c 17.513 -8.543 34.171 -10.436 37.202 -4.226 z m -10.184 66.251 c -18.314 6.726 -35.064 6.92 -37.454 0.435 c -2.374 -6.481 10.513 -17.196 28.813 -23.918 c 18.307 -6.737 35.072 -6.932 37.454 -0.447 c 2.382 6.485 -10.521 17.197 -28.813 23.93 z m 43.501 19.315 c 1.71 6.695 -12.208 16.04 -31.095 20.876 c -18.888 4.836 -35.592 3.336 -37.302 -3.355 c -1.718 -6.691 12.207 -16.04 31.095 -20.876 c 18.888 -4.836 35.584 -3.336 37.302 3.355 z m 10.337 45.466 c 1.03 6.833 -13.758 14.727 -33.042 17.635 c -19.276 2.909 -35.744 -0.271 -36.774 -7.1 c -1.03 -6.829 13.765 -14.727 33.041 -17.635 c 19.285 -2.909 35.743 0.271 36.775 7.1 z m -28.873 60.262 c -19.476 0.935 -35.538 -3.901 -35.866 -10.799 c -0.32 -6.898 15.177 -13.257 34.659 -14.192 c 19.483 -0.939 35.538 3.897 35.858 10.795 c 0.336 6.909 -15.169 13.268 -34.651 14.196 z m -0.245 42.66 c -19.467 -1.046 -34.949 -7.481 -34.591 -14.379 c 0.382 -6.895 16.452 -11.654 35.928 -10.608 c 19.459 1.031 34.949 7.479 34.583 14.376 c -0.367 6.889 -16.453 11.645 -35.92 10.611 z m -4.565 42.405 c -19.27 -3.016 -34.004 -10.979 -32.958 -17.808 c 1.077 -6.817 17.544 -9.932 36.813 -6.92 c 19.277 3.004 34.019 10.981 32.958 17.803 c -1.07 6.822 -17.544 9.929 -36.813 6.925 z m -8.841 41.725 c -18.85 -4.943 -32.729 -14.367 -30.98 -21.048 c 1.756 -6.676 18.46 -8.104 37.332 -3.152 c 18.85 4.936 32.721 14.36 30.98 21.044 c -1.756 6.683 -18.46 8.103 -37.332 3.156 z m 24.446 40.947 c -2.413 6.47 -19.178 6.18 -37.439 -0.646 c -18.269 -6.825 -31.109 -17.601 -28.689 -24.074 c 2.42 -6.471 19.186 -6.181 37.446 0.645 c 18.261 6.825 31.102 17.605 28.682 24.075 z m -54.502 38.763 c -17.498 -8.642 -29.171 -20.666 -26.109 -26.857 c 3.054 -6.191 19.704 -4.214 37.194 4.432 c 17.476 8.627 29.163 20.666 26.102 26.854 c -3.069 6.19 -19.712 4.206 -37.187 -4.429 z m 15.612 45.115 c -3.672 5.852 -20.032 2.188 -36.538 -8.184 c -16.513 -10.371 -26.918 -23.518 -23.246 -29.369 c 3.68 -5.849 20.04 -2.184 36.546 8.188 c 16.512 10.367 26.918 23.518 23.238 29.365 z m -61.144 26.904 c -15.391 -11.989 -24.392 -26.121 -20.146 -31.564 c 4.244 -5.442 20.14 -0.168 35.53 11.826 c 15.383 11.979 24.406 26.121 20.162 31.567 c -4.252 5.443 -20.154 0.157 -35.546 -11.829 z m -27.987 32.182 c -14.085 -13.482 -21.643 -28.453 -16.856 -33.442 c 4.771 -4.981 20.056 1.874 34.148 15.372 c 14.093 13.471 21.628 28.453 16.856 33.445 c -4.771 4.982 -20.062 -1.896 -34.148 -15.375 z m -31.109 29.186 c -12.643 -14.845 -18.636 -30.507 -13.383 -34.98 c 5.252 -4.478 19.78 3.897 32.431 18.754 c 12.649 14.83 18.643 30.495 13.383 34.977 c -5.261 4.472 -19.774 -3.917 -32.431 -18.751 z m -4.054 47.52 c -5.688 3.928 -19.277 -5.897 -30.362 -21.941 c -11.085 -16.044 -15.467 -32.236 -9.779 -36.16 c 5.688 -3.928 19.276 5.897 30.361 21.941 c 11.086 16.043 15.46 32.232 9.78 36.16 z m -37.897 25.078 c -6.054 3.333 -18.582 -7.817 -27.979 -24.903 c -9.405 -17.081 -12.115 -33.633 -6.069 -36.961 c 6.055 -3.329 18.582 7.817 27.979 24.903 c 9.405 17.085 12.115 33.633 6.069 36.961 z m -66.708 -5.87 c -7.627 -17.948 -8.65 -34.687 -2.298 -37.378 c 6.352 -2.699 17.703 9.646 25.33 27.594 c 7.619 17.956 8.643 34.684 2.291 37.39 c -6.367 2.694 -17.697 -9.654 -25.323 -27.606 z m -40.104 14.547 c -5.771 -18.644 -5.092 -35.385 1.512 -37.428 c 6.596 -2.046 16.628 11.391 22.392 30.022 c 5.771 18.628 5.092 35.377 -1.496 37.424 c -6.604 2.039 -16.636 -11.398 -22.408 -30.018 z m -41.362 10.398 c -3.848 -19.12 -1.474 -35.721 5.298 -37.079 c 6.757 -1.363 15.391 13.017 19.231 32.14 c 3.848 19.117 1.488 35.71 -5.291 37.08 c -6.771 1.359 -15.383 -13.028 -19.238 -32.141 z m -42.203 6.161 c -1.893 -19.41 2.138 -35.69 9.017 -36.358 c 6.871 -0.66 14.001 14.513 15.887 33.923 c 1.894 19.414 -2.152 35.676 -9.023 36.355 c -6.88 0.67 -13.988 -14.514 -15.881 -33.92 z m -42.622 1.855 c 0.084 -19.506 5.749 -35.286 12.657 -35.259 c 6.902 0.026 12.452 15.849 12.368 35.351 c -0.076 19.505 -5.749 35.278 -12.65 35.263 c -6.902 -0.031 -12.444 -15.857 -12.375 -35.355 z m -42.577 -2.466 c 2.054 -19.392 9.291 -34.522 16.169 -33.794 c 6.856 0.729 10.78 17.028 8.719 36.424 c -2.054 19.391 -9.284 34.511 -16.162 33.793 c -6.871 -0.732 -10.78 -17.04 -8.726 -36.423 z m -42.119 -6.764 c 4.016 -19.101 12.742 -33.403 19.498 -31.987 c 6.757 1.412 9.009 18.032 5 37.118 c -4.008 19.09 -12.742 33.393 -19.498 31.987 c -6.763 -1.42 -8.992 -18.04 -5 -37.118 z m -41.21 -10.994 c 5.932 -18.593 16.055 -31.945 22.636 -29.854 c 6.573 2.099 7.138 18.856 1.222 37.438 c -5.924 18.582 -16.047 31.935 -22.636 29.847 c -6.596 -2.098 -7.13 -18.856 -1.222 -37.431 z m -39.881 -15.123 c 7.771 -17.892 19.208 -30.156 25.544 -27.4 c 6.321 2.749 5.184 19.483 -2.588 37.37 c -7.771 17.888 -19.2 30.145 -25.537 27.403 c -6.344 -2.755 -5.183 -19.478 2.581 -37.373 z m -44.356 18.139 c -6.023 -3.382 -3.184 -19.906 6.352 -36.912 c 9.535 -17.001 22.155 -28.048 28.178 -24.666 c 6.031 3.382 3.191 19.906 -6.344 36.912 c -9.535 17.001 -22.155 28.044 -28.186 24.666 z m -29.812 -60.052 c 11.222 -15.955 24.888 -25.662 30.537 -21.688 c 5.649 3.97 1.161 20.124 -10.062 36.072 c -11.215 15.963 -24.88 25.662 -30.537 21.704 c -5.657 -3.977 -1.152 -20.132 10.062 -36.088 z m -33.53 -26.365 c 12.78 -14.737 27.362 -23.014 32.583 -18.482 c 5.214 4.516 -0.893 20.136 -13.666 34.874 c -12.78 14.737 -27.354 23.006 -32.576 18.494 c -5.22 -4.535 0.895 -20.155 13.659 -34.886 z m -30.682 -29.625 c 14.215 -13.375 29.552 -20.131 34.278 -15.093 c 4.733 5.023 -2.917 19.945 -17.124 33.309 c -14.192 13.36 -29.545 20.116 -34.278 15.097 c -4.741 -5.031 2.932 -19.945 17.124 -33.313 z m -27.521 -32.583 c 15.49 -11.863 31.438 -17.028 35.629 -11.551 c 4.199 5.478 -4.932 19.548 -20.415 31.404 c -15.475 11.867 -31.423 17.028 -35.629 11.547 c -4.206 -5.481 4.939 -19.543 20.415 -31.4 z m -24.087 -35.205 c 16.612 -10.234 32.996 -13.762 36.622 -7.879 c 3.619 5.871 -6.886 18.944 -23.483 29.175 c -16.604 10.233 -32.988 13.757 -36.629 7.878 c -3.627 -5.874 6.901 -18.941 23.49 -29.174 z m -20.399 -37.462 c 17.559 -8.501 34.217 -10.349 37.232 -4.126 c 3 6.202 -8.764 18.154 -26.315 26.644 c -17.543 8.501 -34.217 10.345 -37.232 4.134 c -3.016 -6.218 8.779 -18.143 26.315 -26.652 z m -16.505 -39.336 c 18.345 -6.676 35.103 -6.829 37.469 -0.336 c 2.359 6.481 -10.558 17.178 -28.888 23.85 c -18.315 6.677 -35.087 6.821 -37.454 0.34 c -2.367 -6.493 10.574 -17.166 28.873 -23.854 z m -12.421 -40.802 c 18.917 -4.786 35.599 -3.24 37.309 3.462 c 1.688 6.688 -12.245 16.021 -31.148 20.8 c -18.91 4.795 -35.599 3.233 -37.301 -3.458 c -1.711 -6.695 12.245 -16.013 31.14 -20.804 z m -8.238 -41.847 c 19.308 -2.852 35.751 0.382 36.759 7.215 c 1.008 6.825 -13.803 14.696 -33.095 17.544 c -19.292 2.851 -35.736 -0.39 -36.759 -7.223 c -1.007 -6.825 13.819 -14.677 33.095 -17.536 z" style="stroke: none; stroke-width: 1; stroke-dasharray: none; stroke-linecap: butt; stroke-linejoin: miter; stroke-miterlimit: 10; fill: #b76204; fill-rule: nonzero; opacity: 1;" transform=" matrix(0.9999996709953805 0 0 0.9999996709953805 -498.0818361287211 -176.9239417911867) " stroke-linecap="round" />
  <ellipse cx="535.0310000000001" cy="779.464" rx="35.311" ry="12.514" style="stroke: none; stroke-width: 1; stroke-dasharray: none; stroke-linecap: butt; stroke-linejoin: miter; stroke-miterlimit: 10; fill: #b76204; fill-rule: nonzero; opacity: 1;" transform=" matrix(-0.9989686570496934 0.045397843816651795 -0.045397843816651795 -0.9989686570496934 -498.0818361287211 -176.9239417911867) "/>
  <path d="M 534.031 724.221 c 19.483 1.099 34.942 7.573 34.561 14.471 c -0.397 6.89 -16.49 11.615 -35.958 10.513 c -19.468 -1.096 -34.927 -7.581 -34.545 -14.479 c 0.389 -6.891 16.482 -11.589 35.942 -10.505 z m 4.688 -42.394 c 19.276 3.062 33.996 11.07 32.919 17.895 c -1.091 6.81 -17.574 9.887 -36.843 6.821 c -19.253 -3.057 -33.973 -11.073 -32.904 -17.895 c 1.084 -6.825 17.574 -9.875 36.828 -6.821 z m 8.947 -41.706 c 18.872 5 32.706 14.459 30.935 21.14 c -1.771 6.665 -18.483 8.054 -37.332 3.054 c -18.849 -4.993 -32.683 -14.463 -30.927 -21.14 c 1.771 -6.673 18.475 -8.039 37.324 -3.054 z m 13.131 -40.577 c 18.262 6.878 31.064 17.696 28.629 24.155 c -2.436 6.455 -19.208 6.138 -37.446 -0.74 c -18.254 -6.878 -31.049 -17.693 -28.621 -24.163 c 2.427 -6.462 19.2 -6.123 37.438 0.748 z m 17.17 -39.049 c 17.475 8.699 29.125 20.754 26.041 26.938 c -3.077 6.176 -19.727 4.161 -37.187 -4.527 c -17.452 -8.688 -29.095 -20.754 -26.025 -26.938 c 3.068 -6.184 19.719 -4.154 37.171 4.527 z m 21.032 -37.103 c 16.505 10.421 26.865 23.594 23.178 29.438 c -3.68 5.825 -20.048 2.138 -36.53 -8.283 c -16.49 -10.406 -26.85 -23.583 -23.17 -29.423 c 3.687 -5.848 20.047 -2.138 36.522 8.268 z m 24.689 -34.786 c 15.368 12.035 24.346 26.189 20.079 31.629 c -4.26 5.424 -20.163 0.103 -35.507 -11.929 c -15.353 -12.024 -24.323 -26.186 -20.071 -31.629 c 4.26 -5.435 20.155 -0.091 35.499 11.929 z m 28.08 -32.106 c 14.063 13.528 21.567 28.522 16.772 33.5 c -4.787 4.966 -20.07 -1.939 -34.118 -15.467 c -14.055 -13.513 -21.552 -28.514 -16.765 -33.492 c 4.787 -4.978 20.064 1.946 34.111 15.459 z m 31.186 -29.098 c 12.62 14.883 18.567 30.557 13.292 35.026 c -5.268 4.455 -19.765 -3.962 -32.37 -18.841 c -12.619 -14.868 -18.543 -30.545 -13.284 -35.019 c 5.26 -4.47 19.75 3.97 32.362 18.834 z m 33.973 -25.793 c 11.054 16.085 15.375 32.282 9.688 36.194 c -5.695 3.901 -19.269 -5.947 -30.309 -22.021 c -11.039 -16.074 -15.353 -32.274 -9.68 -36.183 c 5.695 -3.916 19.261 5.948 30.301 22.01 z m 36.415 -22.215 c 9.36 17.124 12.024 33.671 5.955 36.988 c -6.046 3.306 -18.559 -7.863 -27.918 -24.976 c -9.36 -17.108 -12.009 -33.66 -5.955 -36.98 c 6.061 -3.318 18.558 7.867 27.918 24.968 z m 38.47 -18.415 c 7.581 17.983 8.558 34.713 2.191 37.4 c -6.352 2.672 -17.673 -9.703 -25.247 -27.678 c -7.573 -17.968 -8.542 -34.706 -2.183 -37.389 c 6.359 -2.69 17.665 9.708 25.239 27.667 z m 40.133 -14.428 c 5.733 18.654 5 35.408 -1.604 37.427 c -6.596 2.019 -16.597 -11.448 -22.307 -30.091 c -5.726 -18.639 -4.985 -35.389 1.611 -37.416 c 6.604 -2.03 16.59 11.448 22.3 30.08 z m 41.401 -10.283 c 3.81 19.139 1.382 35.732 -5.39 37.072 c -6.764 1.336 -15.36 -13.07 -19.154 -32.198 c -3.794 -19.12 -1.374 -35.709 5.397 -37.057 c 6.772 -1.363 15.345 13.059 19.147 32.183 z" style="stroke: none; stroke-width: 1; stroke-dasharray: none; stroke-linecap: butt; stroke-linejoin: miter; stroke-miterlimit: 10; fill: #b76204; fill-rule: nonzero; opacity: 1;" transform=" matrix(0.9999996709953805 0 0 0.9999996709953805 -498.0818361287211 -176.9239417911867) " stroke-linecap="round" />
  <path d="M 435.812 638.97 s 36.958 -24.758 33.705 -93.307 c 0 0 -46.661 39.832 -33.705 93.307 z m 30.759 -154.932 s 0.946 53.276 -47.28 95.147 c 0.008 -0.004 -7.123 -60.632 47.28 -95.147 z m -6.573 -56.261 s 4.313 48.562 -46.142 88.417 c 0 0 -13.536 -38.591 46.142 -88.417 z m -55.472 31.454 s 59.159 -25.464 65.159 -96.417 c 0 0 -13.314 24.239 -33.744 39.629 c 0 0 -35.079 31.541 -31.415 56.788 z m 11.643 -56.452 s 26.834 -24.018 33.934 -40.118 c 0 0 8.497 -21.598 0.779 -48.066 c 0 0 -16.811 31.179 -27.972 44.168 c 0 0 -15.299 21.571 -6.741 44.016 z m -6.275 -58.968 s 47.791 -27.292 18.337 -109.934 c 0 0 -9.138 25.125 -25.964 52.516 c 0 -0.007 -21.903 30.683 7.627 57.418 z m -6.024 21.063 s -3.962 -27.258 -23.346 -42.443 c 0 0 -15.215 -11.276 -11.276 -30.892 c 0 0 -30.407 69.659 26.552 110.224 c 0.008 -0.003 10.123 -20.967 8.07 -36.889 z m -12.566 89.535 s 12.704 -41.866 -17.94 -56.188 c 0 0 -22.781 -9.344 -28.537 -23.518 c 0.007 0 0.266 60.77 46.477 79.706 z m 10.07 60.842 s -0.245 -54.711 -61.334 -73.465 c -0.008 0 13.283 63.048 61.334 73.465 z m 0.908 57.227 s 9.276 -30.732 -28.812 -53.288 c 0 0 -30.217 -17.364 -32.232 -26.758 c 0 0 -3.474 68.423 61.044 80.046 z m 26.865 77.469 s -2.168 -59.055 -76.03 -79.057 c 0 0.004 5.123 53.551 76.03 79.057 z m 13.261 52.838 s 7.054 -41.062 -75.519 -64.495 c 0 0 -14.772 40.286 75.519 64.495 z m 14.062 49.497 s -10.474 -48.249 -74.16 -53.834 c 0.008 -0.008 12.086 43.287 74.16 53.834 z m 22.872 53.917 s 3.971 -41.47 -80.129 -58.658 c 0 0 -11.711 41.282 80.129 58.658 z m 18.522 36.683 s -12.223 -33.583 -47.539 -29.476 c 0 0 -28.178 1.908 -38.95 -12.253 c 0 0 19.689 63.158 86.489 41.729 z M 772.6 1074.614 c -13.192 -5.657 -26.011 -12.017 -38.698 -18.666 a 740.367 740.367 0 0 1 -37.424 -21.128 c -24.544 -14.814 -48.265 -31.022 -70.839 -48.765 c -22.567 -17.741 -43.989 -37.029 -63.602 -58.116 c -19.604 -21.086 -37.393 -44 -52.249 -68.834 l -2.168 -3.623 l 7.344 -4.317 l 2.107 3.669 c 14.055 24.51 31.095 47.344 50.02 68.483 c 18.956 21.144 39.79 40.626 61.838 58.628 c 22.063 18.005 45.341 34.549 69.473 49.737 a 735.797 735.797 0 0 0 36.866 21.72 c 12.497 6.848 25.193 13.44 38.164 19.296 l 0.954 0.428 l -0.817 1.904 l -0.969 -0.416 z" style="stroke: none; stroke-width: 1; stroke-dasharray: none; stroke-linecap: butt; stroke-linejoin: miter; stroke-miterlimit: 10; fill: #df9200; fill-rule: nonzero; opacity: 1;" transform=" matrix(0.9999996709953805 0 0 0.9999996709953805 0 0) " stroke-linecap="round" />
  <path d="M 521.782 840.718 c -12.107 11.15 -31.499 20.17 -60.586 11.563 c 0 0 43.882 32.063 67.343 -7.669 a 37.8 37.8 0 0 1 -6.757 -3.894 z" style="stroke: none; stroke-width: 1; stroke-dasharray: none; stroke-linecap: butt; stroke-linejoin: miter; stroke-miterlimit: 10; fill: #df9200; fill-rule: nonzero; opacity: 1;" transform=" matrix(0.9999996709953805 0 0 0.9999996709953805 0 0) " stroke-linecap="round" />
  <path d="M 558.22 813.36 s 37.82 -25.903 40.264 -84.378 c -0.01 0 -53.059 39.583 -40.264 84.378 z m -8.749 -49.711 s 37.408 -17.437 44.203 -80.752 c 0 0 -48.47 29.873 -44.203 80.752 z m 50.273 -137.68 s -6.719 48.981 -56.898 80.507 c 0 -0.001 2.091 -56.609 56.898 -80.507 z m 1.977 -52.521 s -2.963 45.142 -54.906 74.499 c 0.01 0 -6.901 -37.308 54.906 -74.499 z m -55.342 20.937 s 57.884 -14.925 73.488 -79.122 c 0 0 -15.674 20.318 -36.576 31.53 c 0.001 0 -36.667 23.922 -36.912 47.592 z m 18.712 -50.1 s 28.033 -18.201 36.828 -31.95 c 0 0 10.871 -18.601 7.565 -43.966 c 0 0 -19.85 26.189 -31.935 36.515 c 0.001 0 -17.084 17.597 -12.458 39.401 z m 2.664 -54.963 s 47.692 -18.223 32.462 -98.193 c 0 0 -11.948 21.743 -31.278 44.455 c 0 -0.001 -24.46 25.017 -1.184 53.738 z m -8.535 18.455 s 0.252 -25.563 -15.36 -42.252 c 0 0 -12.344 -12.505 -5.939 -29.926 c 0 0 -37.797 59.54 8.65 104.842 c 0.01 0 12.267 -17.773 12.649 -32.664 z m -24.269 80.31 s 17.605 -36.584 -8.451 -54.082 c 0 0 -19.551 -11.811 -22.811 -25.628 c 0 0 -8.406 55.753 31.262 79.71 z m 0.573 57.212 s 7.565 -50.2 -45.783 -76.092 c 0 0 3.191 59.7 45.783 76.092 z m -7.329 52.607 s 12.887 -26.861 -18.826 -52.967 c 0 0 -25.231 -20.227 -25.735 -29.125 c -0.001 0 -12.933 62.25 44.561 82.092 z m 13.597 74.858 s 6.428 -54.455 -58.456 -83.31 c -0.001 0.001 -2.932 49.822 58.456 83.31 z m 4.633 50.337 s 12.322 -36.641 -60.052 -69.893 c 0.001 0.001 -19.291 34.837 60.052 69.893 z" style="stroke: none; stroke-width: 1; stroke-dasharray: none; stroke-linecap: butt; stroke-linejoin: miter; stroke-miterlimit: 10; fill: #df9200; fill-rule: nonzero; opacity: 1;" transform=" matrix(0.9999996709953805 0 0 0.9999996709953805 0 0) " stroke-linecap="round" />
  <path d="M 589.277 802.329 s -25.376 45.782 -76.129 21.792 c 0 0 49.31 49.295 76.129 -21.792 z" style="stroke: none; stroke-width: 1; stroke-dasharray: none; stroke-linecap: butt; stroke-linejoin: miter; stroke-miterlimit: 10; fill: #df9200; fill-rule: nonzero; opacity: 1;" transform=" matrix(0.9999996709953805 0 0 0.9999996709953805 0 0) " stroke-linecap="round" />
  <path d="M 767.027 1072.339 c -11.291 -7.073 -22.147 -14.73 -32.835 -22.636 a 686.323 686.323 0 0 1 -31.309 -24.704 c -20.392 -17.07 -39.836 -35.309 -58.006 -54.792 c -18.162 -19.49 -35.064 -40.225 -50.043 -62.356 c -14.971 -22.117 -28.01 -45.665 -38.095 -70.557 l -1.474 -3.638 l 7.352 -2.894 l 1.397 3.66 c 9.39 24.477 21.758 47.837 36.11 69.919 c 14.375 22.083 30.697 42.913 48.348 62.571 c 17.674 19.646 36.645 38.138 56.616 55.498 c 9.985 8.676 20.277 16.997 30.759 25.086 c 10.489 8.062 21.231 15.849 32.301 23.048 l 0.81 0.527 l -1.069 1.71 l -0.862 -0.442 z" style="stroke: none; stroke-width: 1; stroke-dasharray: none; stroke-linecap: butt; stroke-linejoin: miter; stroke-miterlimit: 10; fill: #df9200; fill-rule: nonzero; opacity: 1;" transform=" matrix(0.9999996709953805 0 0 0.9999996709953805 0 0) " stroke-linecap="round" />
  <path d="M 397.014 854.448 s 21.285 -29.705 -0.985 -81.489 c 0 0 -24.406 44.093 0.985 81.489 z m -22.17 -144.617 s 18.177 45.989 -10.085 98.074 c 0 -0.004 -25.941 -50.351 10.085 -98.074 z m -24.048 -46.737 s 19.575 40.79 -11.283 91.849 c 0 -0.001 -24.324 -29.114 11.283 -91.849 z m -37.95 45.401 s 43.104 -41.4 25.216 -105.002 c 0 0 -3.68 25.399 -16.406 45.432 c 0.008 -0.008 -20.216 38.824 -8.81 59.57 z m -8.268 -52.841 s 15.498 -29.605 16.406 -45.909 c 0 0 0.359 -21.536 -14.979 -42.02 c 0 0 -4.451 32.564 -9.917 47.486 c 0.008 0.001 -6.252 23.72 8.49 40.443 z m -24.659 -49.187 s 32.629 -39.29 -19.887 -101.495 c 0 0 0.252 24.808 -5.451 54.082 c 0.007 0.003 -9.032 33.8 25.338 47.413 z m 1.634 20.26 s -12.33 -22.395 -34.118 -29.281 c 0 0 -16.895 -4.836 -19.865 -23.166 c 0 0 -3.718 70.438 58.975 87.123 c 0.008 0 1.978 -21.51 -4.992 -34.676 z m 18.246 81.894 s -2.611 -40.522 -33.896 -42.985 c 0 0 -22.834 -0.702 -32.454 -11.138 c 0.008 0 20.032 52.715 66.35 54.123 z m 28.568 49.573 s -18.04 -47.455 -77.229 -43.852 c 0 0.001 32.087 50.46 77.229 43.852 z m 19.429 49.433 s -1.955 -29.729 -42.386 -36.92 c 0 0 -31.919 -5.248 -36.729 -12.749 c -0.007 0 19.277 60.578 79.115 49.669 z m 48.577 58.554 s -21.124 -50.596 -91.811 -43.912 c 0.001 -0.004 21.896 44.844 91.811 43.912 z m 28.735 41.585 s -7.245 -37.974 -86.619 -31.435 c 0.001 0.001 0.283 39.825 86.619 31.435 z" style="stroke: none; stroke-width: 1; stroke-dasharray: none; stroke-linecap: butt; stroke-linejoin: miter; stroke-miterlimit: 10; fill: #df9200; fill-rule: nonzero; opacity: 1;" transform=" matrix(0.9999996709953805 0 0 0.9999996709953805 0 0) " stroke-linecap="round" />
  <path d="M 452.249 868.64 s 0.344 52.353 -55.631 56.341 c -0.001 0 67.143 18.774 55.631 -56.341 z" style="stroke: none; stroke-width: 1; stroke-dasharray: none; stroke-linecap: butt; stroke-linejoin: miter; stroke-miterlimit: 10; fill: #df9200; fill-rule: nonzero; opacity: 1;" transform=" matrix(0.9999996709953805 0 0 0.9999996709953805 0 0) " stroke-linecap="round" />
  <path d="M 443.729 911.327 c 23.842 19.327 49.204 37.146 75.083 53.898 c 25.941 16.724 52.662 32.255 80.146 46.329 c 27.476 14.063 55.73 26.651 84.764 37.187 c 29.018 10.521 58.845 18.96 89.275 24.319 l -0.282 1.695 c -30.621 -4.971 -60.692 -13.048 -89.979 -23.228 c -29.292 -10.188 -57.86 -22.476 -85.656 -36.236 c -27.797 -13.776 -54.853 -29.033 -81.169 -45.497 c -26.277 -16.54 -51.89 -34.007 -76.396 -53.341 l 4.214 -5.126 z m -27.835 -88.226 c -3.894 20.304 -3.993 51.902 14.704 70.396 c 0 0 10.207 -20.777 6.596 -51.509 c -6.153 -2.175 -15.345 -10.79 -21.3 -18.887 z" style="stroke: none; stroke-width: 1; stroke-dasharray: none; stroke-linecap: butt; stroke-linejoin: miter; stroke-miterlimit: 10; fill: #df9200; fill-rule: nonzero; opacity: 1;" transform=" matrix(0.9999996709953805 0 0 0.9999996709953805 0 0) " stroke-linecap="round" />
  <path d="M 423.856 258.582 c 0 -0.626 0.733 -64.563 100.819 -258.582 l 1.74 0.893 C 426.65 194.289 425.811 257.952 425.811 258.567 l -1.955 0.015 z m -58.631 58.631 c 0 -0.626 0.733 -64.563 100.818 -258.582 l 1.741 0.893 C 368.018 252.92 367.179 316.583 367.179 317.197 l -1.954 0.016 z m 82.084 11.727 c 0 -0.626 0.733 -64.563 100.818 -258.582 l 1.741 0.893 C 450.102 264.647 449.263 328.31 449.263 328.925 l -1.954 0.015 z m 148.305 82.473 c 0 -0.584 0.687 -60.625 94.665 -242.802 l 1.741 0.897 c -93.658 181.548 -94.452 241.313 -94.452 241.893 l -1.954 0.012 z m -66.771 55.051 c -0.01 -0.584 0.68 -60.632 94.658 -242.81 l 1.741 0.901 c -93.758 181.75 -94.452 241.313 -94.444 241.894 l -1.955 0.015 z m 77.069 18.826 c -0.01 -0.588 0.68 -60.631 94.658 -242.806 l 1.741 0.897 c -93.758 181.75 -94.452 241.31 -94.444 241.894 l -1.955 0.015 z m -339.88 39.966 c -0.252 -0.527 -25.239 -55.127 -17.94 -259.987 l 1.954 0.069 c -7.275 204.153 17.498 258.551 17.75 259.071 l -1.764 0.847 z m -33.01 70.458 c -0.244 -0.527 -25.239 -55.132 -17.941 -259.987 l 1.955 0.069 c -7.283 204.382 17.505 258.551 17.75 259.071 l -1.764 0.847 z m 77.748 -15.85 c -0.252 -0.526 -25.247 -55.127 -17.956 -259.99 l 1.955 0.073 c -7.26 204.149 17.513 258.547 17.757 259.071 l -1.756 0.846 z" style="stroke: none; stroke-width: 1; stroke-dasharray: none; stroke-linecap: butt; stroke-linejoin: miter; stroke-miterlimit: 10; fill: #df9200; fill-rule: nonzero; opacity: 1;" transform=" matrix(0.9999996709953805 0 0 0.9999996709953805 0 0) " stroke-linecap="round" />
</g>
  <g transform="translate(119.26 183.72)">
   <text font-family="ADAMCG PRO" font-size="40" font-weight="normal" style="stroke: none; stroke-width: 1; stroke-dasharray: none; stroke-linecap: butt; stroke-linejoin: miter; stroke-miterlimit: 10; fill: #000000; fill-rule: nonzero; opacity: 1;" ><tspan x="-108.76" y="8.98" style="stroke: none; stroke-width: 0; stroke-dasharray: none; stroke-linecap: butt; stroke-linejoin: miter; stroke-miterlimit: 4; fill: #000000; fill-rule: ; opacity: 1;">f</tspan><tspan x="-87.45" y="8.98" style="stroke: none; stroke-width: 0; stroke-dasharray: none; stroke-linecap: butt; stroke-linejoin: miter; stroke-miterlimit: 4; fill: #000000; fill-rule: ; opacity: 1;">o</tspan><tspan x="-53.51" y="8.98" style="stroke: none; stroke-width: 0; stroke-dasharray: none; stroke-linecap: butt; stroke-linejoin: miter; stroke-miterlimit: 4; fill: #000000; fill-rule: ; opacity: 1;">o</tspan><tspan x="-19.56" y="8.98" style="stroke: none; stroke-width: 0; stroke-dasharray: none; stroke-linecap: butt; stroke-linejoin: miter; stroke-miterlimit: 4; fill: #000000; fill-rule: ; opacity: 1;">d</tspan><tspan x="7.43" y="8.98" style="stroke: none; stroke-width: 0; stroke-dasharray: none; stroke-linecap: butt; stroke-linejoin: miter; stroke-miterlimit: 4; fill: #000000; fill-rule: ; opacity: 1;"> </tspan><tspan x="19.42" y="8.98" style="stroke: none; stroke-width: 0; stroke-dasharray: none; stroke-linecap: butt; stroke-linejoin: miter; stroke-miterlimit: 4; fill: #000000; fill-rule: ; opacity: 1;">g</tspan><tspan x="47.82" y="8.98" style="stroke: none; stroke-width: 0; stroke-dasharray: none; stroke-linecap: butt; stroke-linejoin: miter; stroke-miterlimit: 4; fill: #000000; fill-rule: ; opacity: 1;">o</tspan><tspan x="81.77" y="8.98" style="stroke: none; stroke-width: 0; stroke-dasharray: none; stroke-linecap: butt; stroke-linejoin: miter; stroke-miterlimit: 4; fill: #000000; fill-rule: ; opacity: 1;">d</tspan></text>
 </g>
</svg>